<?xml version="1.0" standalone="no"?>
<!DOCTYPE svg PUBLIC "-//W3C//DTD SVG 20010904//EN"
 "http://www.w3.org/TR/2001/REC-SVG-20010904/DTD/svg10.dtd">
<svg version="1.0" xmlns="http://www.w3.org/2000/svg"
 width="70pt" height="40pt" viewBox="0 0 1254.000000 806.000000"
 preserveAspectRatio="xMidYMid meet">

<g transform="translate(0.000000,806.000000) scale(0.100000,-0.100000)"
fill="#000000" stroke="none">
<path d="M3000 7811 c-80 -25 -159 -101 -179 -173 -9 -32 -11 -618 -9 -2353 3
-2199 4 -2312 21 -2346 24 -47 71 -95 121 -122 l41 -22 3515 -3 c3861 -2 3574
-7 3652 58 20 16 48 53 62 82 l26 52 0 2321 0 2321 -27 53 c-27 55 -84 105
-146 128 -24 9 -880 11 -3542 11 -1931 0 -3521 -3 -3535 -7z m6740 -2506 l0
-1995 -3205 0 -3205 0 0 1995 0 1995 3205 0 3205 0 0 -1995z"/>
<path d="M6865 6666 c-45 -21 -76 -48 -113 -97 -24 -32 -903 -2335 -909 -2380
-12 -100 50 -215 142 -259 63 -30 169 -30 228 0 50 26 82 54 106 95 11 16 218
550 461 1185 312 813 445 1170 448 1206 16 190 -190 332 -363 250z"/>
<path d="M5240 6580 c-25 -3 -62 -14 -82 -25 -43 -23 -1165 -1011 -1230 -1084
-103 -114 -90 -262 33 -376 180 -166 1158 -1024 1190 -1043 47 -29 137 -39
196 -23 174 47 246 286 125 415 -15 15 -238 215 -495 444 -369 327 -466 418
-455 426 8 6 227 200 487 430 434 384 476 424 499 475 86 188 -61 386 -268
361z"/>
<path d="M7711 6579 c-145 -42 -222 -198 -168 -341 23 -58 61 -95 585 -557
233 -205 422 -377 420 -381 -2 -5 -217 -198 -478 -429 -508 -451 -525 -468
-537 -569 -11 -98 49 -206 141 -255 55 -29 174 -30 228 -3 36 17 1187 1027
1236 1084 42 48 64 110 64 179 -1 116 -1 116 -430 496 -902 799 -852 756 -906
772 -56 17 -105 18 -155 4z"/>
<path d="M7287 1759 c-191 -22 -400 -138 -525 -292 -205 -254 -248 -591 -112
-884 49 -105 88 -163 164 -241 155 -162 345 -242 570 -242 173 0 300 37 440
127 303 196 445 558 356 911 -85 335 -357 580 -690 621 -93 12 -104 12 -203 0z
m184 -339 c79 -15 152 -56 213 -120 64 -67 91 -117 117 -217 35 -138 17 -298
-46 -424 -59 -115 -183 -204 -306 -218 -178 -21 -331 55 -422 210 -58 98 -83
283 -56 411 18 85 72 188 130 246 100 100 228 139 370 112z"/>
<path d="M11345 1760 c-323 -51 -584 -294 -666 -619 -19 -74 -21 -104 -16
-235 5 -163 20 -233 76 -352 95 -204 270 -356 486 -424 97 -30 266 -38 359
-16 87 21 180 65 245 116 l51 40 0 -80 0 -80 160 0 160 0 0 430 0 430 -320 0
-320 0 0 -140 0 -140 160 0 160 0 0 -24 c0 -37 -118 -141 -209 -185 -74 -35
-79 -36 -191 -36 -110 0 -119 2 -180 32 -198 97 -298 337 -245 586 64 305 345
450 613 316 55 -27 136 -101 172 -157 l15 -23 135 101 c74 56 137 106 139 111
6 18 -70 118 -132 174 -73 67 -192 129 -294 156 -91 23 -270 32 -358 19z"/>
<path d="M650 935 l0 -825 190 0 190 0 1 493 0 492 177 -357 177 -357 105 0
105 0 177 357 176 357 1 -492 1 -493 190 0 190 0 0 825 0 825 -205 0 -205 0
-212 -425 c-117 -234 -215 -425 -218 -425 -3 0 -101 191 -218 425 l-212 425
-205 0 -205 0 0 -825z"/>
<path d="M2930 935 l0 -825 190 0 190 0 0 265 0 265 188 0 c289 0 383 30 505
159 180 192 213 454 84 681 -42 75 -149 179 -224 218 -107 56 -156 62 -565 62
l-368 0 0 -825z m744 471 c71 -30 111 -118 104 -231 -6 -95 -36 -152 -98 -182
-40 -21 -58 -23 -207 -23 l-163 0 0 225 0 225 165 0 c119 0 175 -4 199 -14z"/>
<path d="M4650 935 l0 -825 190 0 190 0 2 337 3 338 325 0 325 0 3 -338 2
-337 190 0 190 0 0 825 0 825 -190 0 -190 0 0 -320 0 -320 -330 0 -330 0 0
320 0 320 -190 0 -190 0 0 -825z"/>
<path d="M8710 935 l0 -825 190 0 190 0 2 467 3 467 375 -467 375 -466 153 -1
152 0 0 825 0 825 -190 0 -190 0 -2 -481 -3 -480 -380 480 -380 480 -147 1
-148 0 0 -825z"/>
</g>
</svg>
